<svg xmlns="http://www.w3.org/2000/svg" xmlns:xlink="http://www.w3.org/1999/xlink" fill="none" version="1.1" width="1000" height="1000" viewBox="0 0 1000 1000"><defs><clipPath id="master_svg0_49_036"><rect x="0" y="0" width="1000" height="1000" rx="0"/></clipPath></defs><g clip-path="url(#master_svg0_49_036)"><rect x="0" y="0" width="1000" height="1000" rx="0" fill="#006BFF" fill-opacity="1"/><g><g><g><ellipse cx="488.31837463378906" cy="550.4393615722656" rx="76.66476440429688" ry="76.56063842773438" fill="#FFFFFF" fill-opacity="1"/></g><g><path d="M488.4507102294922,297.2206726074219C488.4507102294922,297.2206726074219,565.2476102294922,430.5076726074219,565.2476102294922,430.5076726074219C565.2476102294922,430.5076726074219,411.6536102294922,430.5076726074219,411.6536102294922,430.5076726074219C411.6536102294922,430.5076726074219,488.4507102294922,297.2206726074219,488.4507102294922,297.2206726074219Z" fill="#FFFFFF" fill-opacity="1"/></g><g><rect x="257" y="156" width="308.777587890625" height="98.3784408569336" rx="0" fill="#FFFFFF" fill-opacity="1"/></g><g><path d="M612.1206970214844,430.508C684.9555970214844,430.508,743.9996970214844,369.057,743.9996970214844,293.254C743.9996970214844,217.4506,684.9555970214844,156,612.1206970214844,156L612.1206970214844,430.508Z" fill-rule="evenodd" fill="#FFFFFF" fill-opacity="1"/></g></g><g><path d="M277.08,815L294.264,815L294.264,757.784L313.656,757.784L313.656,743.48L257.784,743.48L257.784,757.784L277.08,757.784L277.08,815ZM327.672,836.024C340.632,836.024,346.584,829.112,351.86400000000003,815.096L370.68,760.376L354.36,760.376L348.024,783.032C346.776,788.216,345.528,793.304,344.472,798.488L343.992,798.488C342.552,793.112,341.4,788.024,339.76800000000003,783.032L332.472,760.376L315.288,760.376L336.216,813.3679999999999L335.448,816.152C334.2,819.992,331.512,822.6800000000001,326.328,822.6800000000001C325.08,822.6800000000001,323.64,822.2,322.68,822.008L319.608,834.968C321.91200000000003,835.64,324.12,836.024,327.672,836.024ZM378.84000000000003,834.8720000000001L395.928,834.8720000000001L395.928,819.224L395.352,810.6800000000001C399,814.328,403.416,816.344,408.024,816.344C419.736,816.344,430.96799999999996,805.592,430.96799999999996,786.776C430.96799999999996,769.976,422.712,759.032,409.656,759.032C403.99199999999996,759.032,398.616,761.816,394.296,765.656L394.00800000000004,765.656L392.76,760.376L378.84000000000003,760.376L378.84000000000003,834.8720000000001ZM403.99199999999996,802.328C401.4,802.328,398.616,801.56,395.928,799.16L395.928,777.56C398.808,774.392,401.4,772.952,404.568,772.952C410.616,772.952,413.4,777.4639999999999,413.4,787.064C413.4,798.008,409.176,802.328,403.99199999999996,802.328ZM465.72,816.344C479.544,816.344,492.408,805.784,492.408,787.64C492.408,769.592,479.544,759.032,465.72,759.032C451.8,759.032,438.93600000000004,769.592,438.93600000000004,787.64C438.93600000000004,805.784,451.8,816.344,465.72,816.344ZM465.72,802.52C459.288,802.52,456.408,796.76,456.408,787.64C456.408,778.616,459.288,772.856,465.72,772.856C472.05600000000004,772.856,474.93600000000004,778.616,474.93600000000004,787.64C474.93600000000004,796.76,472.05600000000004,802.52,465.72,802.52ZM511.992,816.344C517.848,816.344,522.168,811.64,522.168,805.688C522.168,799.736,517.848,795.128,511.992,795.128C506.03999999999996,795.128,501.81600000000003,799.736,501.81600000000003,805.688C501.81600000000003,811.64,506.03999999999996,816.344,511.992,816.344ZM567.288,816.344C576.6,816.344,584.568,812.792,590.616,805.784L581.592,795.032C578.232,798.6800000000001,573.72,801.56,567.96,801.56C557.88,801.56,551.352,793.304,551.352,779.096C551.352,765.176,558.9359999999999,756.92,568.152,756.92C573.24,756.92,576.9839999999999,759.224,580.6320000000001,762.488L589.56,751.544C584.664,746.552,577.1759999999999,742.232,567.864,742.232C549.72,742.232,533.784,755.864,533.784,779.672C533.784,803.864,549.144,816.344,567.288,816.344ZM613.56,816.344C619.608,816.344,624.696,813.56,629.2080000000001,809.528L629.688,809.528L630.8399999999999,815L644.76,815L644.76,783.992C644.76,766.904,636.7919999999999,759.032,622.6800000000001,759.032C614.136,759.032,606.36,761.912,599.1600000000001,766.232L605.1120000000001,777.4639999999999C610.5840000000001,774.392,615.096,772.664,619.4159999999999,772.664C624.9839999999999,772.664,627.288,775.256,627.672,779.672C606.36,781.976,597.336,788.216,597.336,799.736C597.336,808.856,603.48,816.344,613.56,816.344ZM619.4159999999999,803.096C615.864,803.096,613.56,801.56,613.56,798.392C613.56,794.552,617.0160000000001,791.384,627.672,790.04L627.672,798.776C625.1759999999999,801.4639999999999,622.8720000000001,803.096,619.4159999999999,803.096ZM653.496,773.72L660.7919999999999,773.72L660.7919999999999,815L677.88,815L677.88,773.72L687.576,773.72L687.576,760.376L677.88,760.376L677.88,757.784C677.88,752.312,680.184,750.296,683.928,750.296C685.752,750.296,687.768,750.68,689.496,751.448L692.568,738.776C690.168,737.912,686.232,736.952,681.432,736.952C666.264,736.952,660.7919999999999,746.744,660.7919999999999,758.264L660.7919999999999,760.472L653.496,761.048L653.496,773.72ZM719.736,816.344C726.072,816.344,733.56,814.136,739.2239999999999,810.104L733.56,799.832C729.624,802.136,725.976,803.288,722.04,803.288C715.1279999999999,803.288,709.944,800.216,708.408,792.728L740.472,792.728C740.856,791.384,741.24,788.408,741.24,785.336C741.24,770.456,733.56,759.032,717.816,759.032C704.664,759.032,691.896,769.976,691.896,787.64C691.896,805.784,703.992,816.344,719.736,816.344ZM708.12,781.496C709.2719999999999,775.064,713.4,772.088,718.104,772.088C724.344,772.088,726.744,776.12,726.744,781.496L708.12,781.496Z" fill="#FFFFFF" fill-opacity="1"/></g></g></g></svg>