<svg xmlns="http://www.w3.org/2000/svg" xmlns:xlink="http://www.w3.org/1999/xlink" fill="none" version="1.1" width="128" height="128" viewBox="0 0 128 128"><defs><clipPath id="master_svg0_53_29"><rect x="0" y="0" width="128" height="128" rx="0"/></clipPath></defs><g clip-path="url(#master_svg0_53_29)"><g><path d="M75.2277,23L22,23L22,39.918099999999995L75.2277,39.918099999999995L75.2277,23ZM106,46.602599999999995C106,59.6379,95.8134,70.2051,83.2475,70.2051L83.2475,23C95.8134,23,106,33.5672,106,46.602599999999995ZM75.2166,70.2224L61.9212,47.3124L48.625699999999995,70.2224L75.2166,70.2224ZM61.8732,104C69.1896,104,75.1208,98.094,75.1208,90.8086C75.1208,83.5232,69.1896,77.6172,61.8732,77.6172C54.5568,77.6172,48.625699999999995,83.5232,48.625699999999995,90.8086C48.625699999999995,98.094,54.5568,104,61.8732,104Z" fill-rule="evenodd" fill="#000000" fill-opacity="1"/></g></g></svg>